<svg width="512" height="512" viewBox="0 0 512 512" fill="none" xmlns="http://www.w3.org/2000/svg">
  <!-- Background -->
  <rect width="512" height="512" fill="#000000"/>

  <!-- Magic Wand -->
  <g transform="translate(256, 256)">
    <!-- Wand stick (diagonal line) -->
    <line x1="-180" y1="180" x2="120" y2="-120" stroke="#E0E0E0" stroke-width="8" stroke-linecap="round"/>

    <!-- Sparkles on the wand -->
    <circle cx="-140" cy="140" r="2" fill="white" opacity="0.8"/>
    <circle cx="-100" cy="100" r="2" fill="white" opacity="0.8"/>
    <circle cx="-60" cy="60" r="2" fill="white" opacity="0.8"/>
    <circle cx="-20" cy="20" r="2" fill="white" opacity="0.8"/>
    <circle cx="20" cy="-20" r="2" fill="white" opacity="0.8"/>
    <circle cx="60" cy="-60" r="2" fill="white" opacity="0.8"/>
    <circle cx="100" cy="-100" r="2" fill="white" opacity="0.8"/>

    <!-- Main star at the top -->
    <g transform="translate(150, -150)">
      <!-- Large central cross -->
      <line x1="-60" y1="0" x2="60" y2="0" stroke="white" stroke-width="6" stroke-linecap="round"/>
      <line x1="0" y1="-60" x2="0" y2="60" stroke="white" stroke-width="6" stroke-linecap="round"/>

      <!-- Diagonal cross -->
      <line x1="-42" y1="-42" x2="42" y2="42" stroke="white" stroke-width="4" stroke-linecap="round"/>
      <line x1="-42" y1="42" x2="42" y2="-42" stroke="white" stroke-width="4" stroke-linecap="round"/>

      <!-- Center glow -->
      <circle cx="0" cy="0" r="8" fill="white"/>
      <circle cx="0" cy="0" r="12" fill="white" opacity="0.5"/>
      <circle cx="0" cy="0" r="18" fill="white" opacity="0.2"/>
    </g>

    <!-- Smaller stars around -->
    <g transform="translate(180, -80)">
      <line x1="-12" y1="0" x2="12" y2="0" stroke="white" stroke-width="2"/>
      <line x1="0" y1="-12" x2="0" y2="12" stroke="white" stroke-width="2"/>
      <line x1="-8" y1="-8" x2="8" y2="8" stroke="white" stroke-width="1.5"/>
      <line x1="-8" y1="8" x2="8" y2="-8" stroke="white" stroke-width="1.5"/>
    </g>

    <g transform="translate(200, -180)">
      <line x1="-10" y1="0" x2="10" y2="0" stroke="white" stroke-width="2"/>
      <line x1="0" y1="-10" x2="0" y2="10" stroke="white" stroke-width="2"/>
      <line x1="-7" y1="-7" x2="7" y2="7" stroke="white" stroke-width="1.5"/>
      <line x1="-7" y1="7" x2="7" y2="-7" stroke="white" stroke-width="1.5"/>
    </g>

    <g transform="translate(80, -200)">
      <line x1="-8" y1="0" x2="8" y2="0" stroke="white" stroke-width="1.5"/>
      <line x1="0" y1="-8" x2="0" y2="8" stroke="white" stroke-width="1.5"/>
      <circle cx="0" cy="0" r="2" fill="white"/>
    </g>

    <!-- Additional sparkle dots -->
    <circle cx="120" cy="-180" r="3" fill="white" opacity="0.9"/>
    <circle cx="160" cy="-120" r="2" fill="white" opacity="0.7"/>
    <circle cx="100" cy="-160" r="2.5" fill="white" opacity="0.8"/>
    <circle cx="140" cy="-200" r="2" fill="white" opacity="0.6"/>
    <circle cx="180" cy="-140" r="2" fill="white" opacity="0.7"/>
    <circle cx="60" cy="-180" r="2" fill="white" opacity="0.6"/>
    <circle cx="200" cy="-120" r="1.5" fill="white" opacity="0.5"/>
  </g>
</svg>
